HIERARCHY
ROOT Hips
{
    OFFSET 0.0 0.0 0.0
    CHANNELS 6 Xposition Yposition Zposition Zrotation Xrotation Yrotation
    JOINT LeftUpLeg
    {
        OFFSET 11.6521607463926 0.0 0.0
        CHANNELS 3 Zrotation Xrotation Yrotation
        JOINT LeftLeg
        {
            OFFSET 0.0 0.0 -61.06146444340382
            CHANNELS 3 Zrotation Xrotation Yrotation
            JOINT LeftFoot
            {
                OFFSET 0.0 0.0 -46.26892892157278
                CHANNELS 3 Zrotation Xrotation Yrotation
                JOINT LeftToeBase
                {
                    OFFSET 0.0 -11.794399109348031 0.0
                    CHANNELS 3 Zrotation Xrotation Yrotation
                    End Site
                    {
                        OFFSET 0 0 0
                    }
                }
            }
        }
    }
    JOINT RightUpLeg
    {
        OFFSET -11.6521607463926 0.0 0.0
        CHANNELS 3 Zrotation Xrotation Yrotation
        JOINT RightLeg
        {
            OFFSET 0.0 0.0 -61.06146444340382
            CHANNELS 3 Zrotation Xrotation Yrotation
            JOINT RightFoot
            {
                OFFSET 0.0 0.0 -46.26892892157278
                CHANNELS 3 Zrotation Xrotation Yrotation
                JOINT RightToeBase
                {
                    OFFSET 0.0 -11.794399109348031 0.0
                    CHANNELS 3 Zrotation Xrotation Yrotation
                    End Site
                    {
                        OFFSET 0 0 0
                    }
                }
            }
        }
    }
    JOINT Spine
    {
        OFFSET 0.0 0.0 11.504834707515329
        CHANNELS 3 Zrotation Xrotation Yrotation
        JOINT Spine1
        {
            OFFSET 0.0 0.0 11.325434738887017
            CHANNELS 3 Zrotation Xrotation Yrotation
            JOINT Spine2
            {
                OFFSET 0.0 0.0 11.325434738887019
                CHANNELS 3 Zrotation Xrotation Yrotation
                JOINT Spine3
                {
                    OFFSET 0.0 0.0 11.325434738887015
                    CHANNELS 3 Zrotation Xrotation Yrotation
                    JOINT Spine4
                    {
                        OFFSET 0.0 0.0 11.32543473888702
                        CHANNELS 3 Zrotation Xrotation Yrotation
                        JOINT RightShoulder
                        {
                            OFFSET -22.003302724222372 0.0 0.0
                            CHANNELS 3 Zrotation Xrotation Yrotation
                            JOINT RightArm
                            {
                                OFFSET -33.77473510716133 0.0 0.0
                                CHANNELS 3 Zrotation Xrotation Yrotation
                                JOINT RightForeArm
                                {
                                    OFFSET -32.259971405434975 0.0 0.0
                                    CHANNELS 3 Zrotation Xrotation Yrotation
                                    JOINT RightHand
                                    {
                                        OFFSET -11.996058148310139 0.0 0.0
                                        CHANNELS 3 Zrotation Xrotation Yrotation
                                        End Site
                                        {
                                            OFFSET 0 0 0
                                        }
                                    }
                                }
                            }
                        }
                        JOINT LeftShoulder
                        {
                            OFFSET 22.003302724222372 0.0 0.0
                            CHANNELS 3 Zrotation Xrotation Yrotation
                            JOINT LeftArm
                            {
                                OFFSET 33.77473510716133 0.0 0.0
                                CHANNELS 3 Zrotation Xrotation Yrotation
                                JOINT LeftForeArm
                                {
                                    OFFSET 32.259971405434975 0.0 0.0
                                    CHANNELS 3 Zrotation Xrotation Yrotation
                                    JOINT LeftHand
                                    {
                                        OFFSET 11.996058148310139 0.0 0.0
                                        CHANNELS 3 Zrotation Xrotation Yrotation
                                        End Site
                                        {
                                            OFFSET 0 0 0
                                        }
                                    }
                                }
                            }
                        }
                        JOINT Neck
                        {
                            OFFSET 0.0 0.0 11.325434719878627
                            CHANNELS 3 Zrotation Xrotation Yrotation
                            JOINT Head
                            {
                                OFFSET 0.0 0.0 26.86190896427853
                                CHANNELS 3 Zrotation Xrotation Yrotation
                                End Site
                                {
                                    OFFSET 0 0 0
                                }
                            }
                        }
                    }
                }
            }
        }
    }
}
MOTION
Frames: 4
Frame Time: 0.03333333333333333
56.3624871969223 -5.5810078382492065 424.9640584945679 125.18785579008667 -82.05234488585558 125.62121253412452 -8.528840338284907 11.705872824561766 -10.834060336517467 29.739841520052067 -17.876933046894575 24.407518915091263 -105.6882422643994 3.1805546814635168e-15 81.41658039859152 0.0 0.0 0.0 8.10035241657981 11.187815015666256 12.667341366175208 -24.08369621859824 -13.71916673125818 -29.78395589825516 -169.83145517563113 5.9635400277440935e-15 -38.02412822855708 0.0 0.0 0.0 0.0019185964362069187 2.4049928993388487 -0.26279735750713457 0.0 2.4848083448933725e-17 0.0 0.0 2.4848083448933725e-17 0.0 0.0 2.4848083448933725e-17 0.0 0.0 2.4848083448933725e-17 0.0 143.33113191083996 -25.095464378624182 -144.66066081864008 111.43031882655855 1.2065248504078396e-14 2.747266601211482e-14 180.0 0.10364414506419586 -180.0 4.4139062980501586e-32 6.3611093629270335e-15 -7.951386703658792e-16 -158.66301809607324 -25.19266140145949 152.70099343556797 -116.11936293309014 -8.710706325070483e-15 -1.9484372708424426e-15 180.0 -51.211252747432106 180.0 1.3241718894150476e-31 6.361109362927033e-15 -2.385416011097637e-15 1.5272830163909394 -3.5281144644599975e-15 4.702570094740076e-17 7.951386703658794e-16 4.969616689786746e-17 -3.4483642953516864e-34
56.3624871969223 -5.5810078382492065 424.9640584945679 125.18785579008667 -82.05234488585558 125.62121253412452 -8.528840338284907 11.705872824561766 -10.834060336517467 29.739841520052067 -17.876933046894575 24.407518915091263 -105.6882422643994 3.1805546814635168e-15 81.41658039859152 0.0 0.0 0.0 8.10035241657981 11.187815015666256 12.667341366175208 -24.08369621859824 -13.71916673125818 -29.78395589825516 -169.83145517563113 5.9635400277440935e-15 -38.02412822855708 0.0 0.0 0.0 0.0019185964362069187 2.4049928993388487 -0.26279735750713457 0.0 2.4848083448933725e-17 0.0 0.0 2.4848083448933725e-17 0.0 0.0 2.4848083448933725e-17 0.0 0.0 2.4848083448933725e-17 0.0 143.33113191083996 -25.095464378624182 -144.66066081864008 111.43031882655855 1.2065248504078396e-14 2.747266601211482e-14 180.0 0.10364414506419586 -180.0 4.4139062980501586e-32 6.3611093629270335e-15 -7.951386703658792e-16 -158.66301809607324 -25.19266140145949 152.70099343556797 -116.11936293309014 -8.710706325070483e-15 -1.9484372708424426e-15 180.0 -51.211252747432106 180.0 1.3241718894150476e-31 6.361109362927033e-15 -2.385416011097637e-15 1.5272830163909394 -3.5281144644599975e-15 4.702570094740076e-17 7.951386703658794e-16 4.969616689786746e-17 -3.4483642953516864e-34
56.3624871969223 -5.5810078382492065 424.9640584945679 125.18785579008667 -82.05234488585558 125.62121253412452 -8.528840338284907 11.705872824561766 -10.834060336517467 29.739841520052067 -17.876933046894575 24.407518915091263 -105.6882422643994 3.1805546814635168e-15 81.41658039859152 0.0 0.0 0.0 8.10035241657981 11.187815015666256 12.667341366175208 -24.08369621859824 -13.71916673125818 -29.78395589825516 -169.83145517563113 5.9635400277440935e-15 -38.02412822855708 0.0 0.0 0.0 0.0019185964362069187 2.4049928993388487 -0.26279735750713457 0.0 2.4848083448933725e-17 0.0 0.0 2.4848083448933725e-17 0.0 0.0 2.4848083448933725e-17 0.0 0.0 2.4848083448933725e-17 0.0 143.33113191083996 -25.095464378624182 -144.66066081864008 111.43031882655855 1.2065248504078396e-14 2.747266601211482e-14 180.0 0.10364414506419586 -180.0 4.4139062980501586e-32 6.3611093629270335e-15 -7.951386703658792e-16 -158.66301809607324 -25.19266140145949 152.70099343556797 -116.11936293309014 -8.710706325070483e-15 -1.9484372708424426e-15 180.0 -51.211252747432106 180.0 1.3241718894150476e-31 6.361109362927033e-15 -2.385416011097637e-15 1.5272830163909394 -3.5281144644599975e-15 4.702570094740076e-17 7.951386703658794e-16 4.969616689786746e-17 -3.4483642953516864e-34
56.37740170955658 -5.61297559440136 424.998871421814 124.94220257289481 -81.99698904684628 125.36810601990055 -8.409504267128572 11.675661128194562 -10.9053709672317 29.61572607520644 -17.847331519133803 24.51346132168984 -105.7673639475942 1.2722218725854067e-14 81.44325960083397 0.0 0.0 3.1805546814635168e-15 8.215877033656248 11.277294183247404 12.66435137554893 -24.33458765119057 -13.753816160636871 -29.7760623006731 -169.6971555266873 2.3854160110976376e-15 -37.80197896644751 0.0 0.0 0.0 0.011624641629819452 2.4173027955252637 -0.2675822372615901 0.0 0.0 0.0 0.0 0.0 0.0 0.0 0.0 0.0 0.0 0.0 0.0 144.0477130567629 -25.98154173007115 -144.28913673306437 111.28001445929505 -1.543874844729296e-14 4.0022595350521434e-17 180.0 -61.90607957805938 -180.0 1.5902773407317584e-15 2.2069531490250793e-32 1.5902773407317584e-15 -158.85360094016013 -25.064182902576746 152.65659483175418 -116.22450110586352 1.3952521279911329e-14 -1.6570482505344814e-15 180.0 -51.5242160739184 180.0 0.0 0.0 -1.5902773407317584e-15 1.4311750556792098 8.884989582990644e-15 -9.061742786788961e-16 -7.951386703658792e-16 0.0 0.0
